# xmcd CD database file
#
# Track frame offsets:
#	150
#	20857
#	35475
#	57375
#	78047
#
# Disc length: 1233 seconds
#
# Revision: 1
# Processed by: cddbd v1.5PL3 Copyright (c) Steve Scherf et al.
# Submitted via: CDex 1.50
#
DISCID=3804cf05
DTITLE=水樹奈々 - 想い
DYEAR=2000
DGENRE=Seiyu
TTITLE0=想い
TTITLE1=アノネ〜まみむめ☆もがちょ〜
TTITLE2=ピアス
TTITLE3=想い(vocalless .ver)
TTITLE4=アノネ〜まみむめ☆もがちょ〜(vocalless .ver)
EXTD=YEAR: 2000
EXTT0=
EXTT1=
EXTT2=
EXTT3=
EXTT4=
PLAYORDER=
